<svg width="165" height="34" viewBox="0 0 165 34" fill="none" xmlns="http://www.w3.org/2000/svg">
<g id="Social medias">
<path id="Vector" d="M24.364 9.16C24.4083 8.22325 24.4738 6.8669 24.2308 6.6019C22.3434 4.54433 17.2211 5.80852 16.2544 8.60554C15.6432 10.3738 15.3993 12.7889 15.5224 15.8509C13.5945 15.8509 12.5135 15.9835 12.2798 16.2488C12.0614 16.4965 12.0317 20.6223 12.2798 20.6223C13.2979 20.6223 15.2097 20.8872 15.2097 20.8872C15.2097 20.8872 15.2839 31.5358 15.2097 31.6223C14.8695 32.0192 3.83867 31.6223 2.3557 31.6223C1.55538 31.6223 2.3557 17.9795 2.3557 16.4996C2.3557 15.4424 2.2583 3.47661 2.3557 3.36565C2.76335 2.8986 6.67565 3.00304 7.26976 3.00304C10.7937 3.00304 26.0088 1.00257 28.4111 2.65189C29.4309 3.35248 29.2721 7.87325 29.2721 8.95217C29.2721 10.5323 29.2207 30.8765 28.7944 31.6223C28.4111 32.293 20.1418 31.9265 19.6102 31.6223C19.4481 31.5296 19.4481 28.0665 19.6102 21.2332C22.235 21.5843 23.5475 21.3807 23.5475 20.6223C23.5475 19.1499 23.5475 17.3522 23.5475 16.7447C23.5475 16.4142 22.3316 16.2488 19.8999 16.2488C19.8247 13.903 19.9706 12.3138 20.3375 11.4811C20.9275 10.1422 21.543 10.3682 23.1006 10.6108" stroke="white" stroke-width="3" stroke-linecap="round" stroke-linejoin="round"/>
<path id="Vector_2" d="M70.8092 26.3457C70.1968 24.0396 70.4854 21.6102 70.2276 19.251C70.0082 17.2449 69.6041 6.44041 71.0027 4.84087C73.4971 1.98796 92.0373 0.410789 94.6516 4.39758C96.5502 7.29228 96.2023 12.9684 96.2023 16.3691C96.2023 20.0421 96.9472 25.7157 94.4576 28.5625C90.7118 32.8467 77.2118 32.4437 72.1658 31.0013M70.1567 13.9901C72.0545 13.2285 77.4678 14.4565 77.678 13.9453C78.2082 12.656 79.5683 9.96688 82.8986 9.2284C85.2369 8.70989 88.7186 9.2284 89.8397 11.8697C95.3441 24.8378 83.7076 28.6554 80.3847 26.5955C77.4451 24.7732 77.678 22.3062 77.678 20.3774M81.9938 15.0025C82.6202 14.2079 83.907 13.1456 84.9062 13.4339C88.0552 14.3424 88.0025 21.4143 84.7119 22.1742C81.6218 22.8874 79.2925 17.6821 81.9938 16.1229M91.7659 13.9277C92.5796 13.7979 95.2006 13.9089 95.9938 13.747M92.7836 8.53575C92.7836 8.45551 92.7836 8.37583 92.7836 8.29559" stroke="white" stroke-width="3" stroke-linecap="round" stroke-linejoin="round"/>
<path id="Vector_3" d="M159.693 4.96156C152.043 -4.04784 151.897 10.2901 150.35 11.1622C147.208 12.9327 143.846 10.2901 141.342 7.23658C141.096 6.93626 138.877 2.77897 138.746 2.9653C136.512 6.14439 138.744 16.2892 140.693 18.6661C142.642 21.043 143.047 20.3506 143.047 20.6285C143.047 20.9988 142.443 20.8288 142.316 20.8598C139.879 21.4523 137.768 16.7418 137.218 16.1882C136.668 15.6345 137.305 19.4983 137.543 20.3442C138.591 24.075 141.219 26.8631 144.02 26.8631M162.439 3.23296C161.604 4.10273 160.681 4.63723 159.693 4.8768M163.307 6.72609C162.406 7.03833 161.437 7.03833 160.544 7.8934C160.363 8.06635 160.617 9.06807 160.788 11.2776C160.959 13.4871 160.374 16.2101 159.894 18.2799C157.305 29.4398 143.906 36.0315 138.445 29.265M155.935 6.10961C156.059 6.39833 156.155 6.60377 156.224 6.72609" stroke="white" stroke-opacity="0.9" stroke-width="3" stroke-linecap="round" stroke-linejoin="round"/>
</g>
</svg>
